<svg width="48" height="42" viewBox="0 0 48 42" fill="none" xmlns="http://www.w3.org/2000/svg"><path fill="#EAECED" d="M6.966 2h36v8h-36zM6.966 32h36v8h-36z"/><path d="M43.412 1v3.125m0 6.375V7.25M6.966 2v8" stroke="#899197" stroke-width="2" stroke-linecap="round" stroke-linejoin="round"/><path stroke="#41484C" stroke-width="2" stroke-linecap="round" stroke-linejoin="round" d="M1.931 11h45"/><path stroke="#899197" stroke-width="2" stroke-linecap="round" stroke-linejoin="round" d="M43.508 36v4.316M6.966 32.842v2.369m0 4.789v-1.684"/><path stroke="#41484C" stroke-width="2" stroke-linecap="round" stroke-linejoin="round" d="M1.931 32h45"/><path d="M5.757 23.288c-.01 1.238 1.203 2.252 2.717 2.263 1.513.012 2.738-.861 2.749-2.1.006-1.413-1.515-1.777-2.714-2.243-.762-.3-2.563-.91-2.556-2.246.01-1.17 1.167-2.111 2.581-2.096 1.424.004 2.56.96 2.55 2.128M8.531 16.768l.022-1.956M8.46 28.173l.012-1.965" stroke="#EFC053" stroke-width="2" stroke-miterlimit="10" stroke-linecap="round" stroke-linejoin="round"/><path d="M16.11 18.986H40.93" stroke="#2599AE" stroke-width="2" stroke-miterlimit="10" stroke-linecap="round" stroke-linejoin="round"/><path d="M13.11 5.986h12.41m12.411 0h-8.205" stroke="#899197" stroke-width="2" stroke-miterlimit="10" stroke-linecap="round" stroke-linejoin="round"/><path d="M16.11 23.986H26.93m13 0h-4m-5 0h2M36.931 36.986H22.11m-4 0h-5" stroke="#ADB4B8" stroke-width="2" stroke-miterlimit="10" stroke-linecap="round" stroke-linejoin="round"/></svg>